<?xml version="1.0" standalone="no"?>
<!DOCTYPE svg PUBLIC "-//W3C//DTD SVG 20010904//EN"
 "http://www.w3.org/TR/2001/REC-SVG-20010904/DTD/svg10.dtd">
<svg version="1.0" xmlns="http://www.w3.org/2000/svg"
 width="300.000000pt" height="300.000000pt" viewBox="0 0 300.000000 300.000000"
 preserveAspectRatio="xMidYMid meet">
<metadata>
Created by potrace 1.10, written by Peter Selinger 2001-2011
</metadata>
<g transform="translate(0.000000,300.000000) scale(0.100000,-0.100000)"
fill="#000000" stroke="none">
<path d="M208 2983 c-92 -110 -168 -351 -168 -533 0 -42 -6 -69 -20 -92 -11
-18 -20 -49 -20 -68 l1 -35 21 40 21 40 14 -60 c7 -33 22 -87 32 -120 11 -33
19 -67 19 -75 0 -8 3 -56 7 -106 8 -95 6 -101 -35 -109 -14 -3 -20 2 -20 16 0
13 -7 19 -24 19 -28 0 -43 -39 -26 -70 6 -11 8 -26 4 -32 -5 -7 -2 -9 9 -5 9
3 19 2 23 -4 3 -6 -3 -13 -15 -16 -12 -3 -21 -10 -22 -17 -9 -109 -9 -115 14
-118 13 -2 21 -9 20 -18 -1 -8 -4 -45 -8 -83 -4 -37 -13 -74 -21 -81 -23 -23
-16 -36 19 -37 l32 -2 -35 -7 c-34 -7 -33 -7 15 -10 61 -3 101 -1 138 6 20 4
27 2 27 -10 0 -11 -10 -17 -32 -18 -18 -1 -44 -3 -58 -4 -14 -1 -47 -2 -73 -3
l-48 -1 3 -92 3 -93 84 2 83 1 -7 -31 c-14 -64 -23 -182 -17 -239 5 -61 2 -65
-40 -49 -13 4 -42 11 -65 15 l-43 6 0 -49 c0 -47 2 -50 30 -56 16 -4 30 -11
30 -16 0 -5 7 -9 15 -9 8 0 15 -9 15 -20 0 -17 -3 -19 -19 -10 -29 15 -35 12
-16 -6 11 -11 14 -25 10 -43 -19 -80 -27 -101 -37 -101 -20 0 5 -17 34 -24 26
-6 41 8 17 16 -16 5 15 116 38 135 16 13 16 14 1 9 -13 -4 -18 0 -18 14 0 24
-1 24 50 4 27 -11 39 -21 36 -30 -3 -8 -1 -14 4 -14 5 0 22 -24 36 -52 15 -29
35 -66 46 -81 19 -26 19 -29 3 -47 -9 -10 -23 -16 -31 -13 -8 3 -17 -4 -22
-18 l-9 -22 -16 23 c-18 26 -46 21 -54 -9 -3 -11 -15 -21 -27 -23 -14 -2 -20
-9 -19 -23 1 -10 -3 -28 -8 -40 -9 -17 -8 -18 3 -4 7 8 23 18 35 21 20 5 22 3
17 -18 -5 -18 -3 -24 7 -22 8 2 14 -7 16 -22 1 -20 -16 -42 -84 -106 -47 -44
-84 -86 -82 -92 2 -7 21 4 44 26 135 125 206 183 216 176 7 -4 9 -3 5 4 -7 12
19 42 39 42 7 0 15 6 18 14 3 7 17 16 32 20 21 5 35 -1 73 -33 26 -21 57 -44
69 -50 36 -18 28 -27 -36 -43 -44 -12 -63 -12 -71 -4 -16 15 -3 -65 16 -102 8
-15 14 -34 14 -43 0 -23 12 -31 24 -15 15 19 103 46 123 39 13 -5 15 -2 9 13
-11 26 -35 118 -32 121 1 2 16 -3 33 -9 42 -16 58 -73 57 -200 l-1 -98 64 0
63 0 0 78 c0 42 -4 94 -9 114 -11 46 -3 49 83 41 75 -7 210 11 278 37 26 10
48 17 48 16 0 -1 -32 -65 -70 -141 l-70 -140 147 -3 c81 -1 153 0 160 2 7 3
23 26 36 51 22 45 23 46 40 27 17 -18 17 -20 -2 -43 -14 -16 -20 -19 -21 -10
0 11 -3 12 -11 4 -30 -30 5 -33 394 -33 381 0 393 1 393 19 0 11 -3 18 -7 15
-9 -5 -29 52 -21 61 4 3 0 10 -8 15 -21 13 -22 50 -1 43 9 -4 13 -3 9 2 -4 4
3 16 15 27 20 18 20 19 2 13 -11 -4 -30 -10 -42 -12 -13 -3 -23 -9 -23 -13 0
-4 -9 -10 -20 -13 -17 -4 -18 -2 -9 14 6 13 6 19 -1 19 -5 0 -10 7 -10 15 0
22 17 18 23 -5 4 -15 10 -18 24 -13 24 9 44 29 36 37 -15 14 28 16 56 1 18 -9
35 -13 40 -10 5 2 11 -2 15 -10 3 -8 11 -15 17 -15 8 0 8 4 -1 15 -7 8 -9 15
-6 15 4 0 19 -14 33 -31 17 -20 28 -27 33 -19 7 12 36 1 66 -25 6 -5 30 -25
52 -43 24 -19 39 -39 36 -46 -7 -18 16 -32 26 -16 14 22 -2 51 -37 65 -33 14
-37 35 -7 35 12 0 12 3 2 20 -7 11 -20 19 -28 18 -18 -3 -40 9 -40 23 0 5 9 9
19 9 11 0 21 5 23 11 5 14 36 0 62 -27 15 -14 16 -14 16 4 0 11 -6 23 -12 25
-8 3 -6 6 5 6 10 1 17 9 17 20 0 24 37 17 43 -8 4 -14 5 -13 6 2 1 15 7 17 35
12 20 -4 36 -2 40 4 4 7 1 9 -8 5 -10 -4 -16 -1 -16 9 0 17 33 30 70 28 22 -1
23 0 7 9 -9 6 -15 15 -12 20 3 4 -4 6 -14 3 -15 -4 -19 -1 -15 14 3 11 15 19
31 20 19 1 22 -1 12 -8 -8 -5 -11 -9 -6 -10 41 -8 70 -21 59 -28 -6 -3 0 -11
14 -18 21 -10 23 -9 14 7 -5 9 -6 20 -3 24 3 3 -1 6 -10 6 -10 0 -14 5 -11 15
4 11 21 15 55 15 46 0 49 -1 50 -27 2 -24 2 -25 6 -5 5 24 23 28 53 12 29 -16
39 28 12 49 -12 9 -34 45 -51 80 -40 85 -32 102 69 139 l55 20 3 116 c2 83 -1
116 -9 116 -8 0 -8 4 0 14 9 11 9 20 2 34 -7 13 -7 22 1 30 19 19 1 14 -69
-18 -35 -17 -70 -30 -77 -30 -8 0 -29 -6 -47 -14 -19 -8 -54 -16 -79 -20 -43
-5 -44 -5 -20 9 14 8 32 15 40 15 8 0 21 4 29 9 11 7 10 13 -4 34 -9 15 -14
31 -10 37 9 14 27 2 19 -13 -5 -8 -3 -8 7 1 16 14 59 16 59 2 0 -5 -4 -10 -10
-10 -5 0 -10 -9 -10 -20 0 -17 4 -19 28 -14 47 11 92 33 92 43 0 6 -6 11 -14
11 -22 0 -64 48 -68 80 -4 25 -1 30 16 31 16 1 17 2 4 6 -9 2 -19 10 -22 18
-3 8 0 12 7 9 7 -2 13 3 14 13 1 10 4 28 8 41 6 17 3 22 -9 22 -10 0 -15 4
-11 10 4 6 15 6 31 0 14 -6 23 -6 20 -1 -3 5 1 14 9 21 12 10 16 9 21 -4 7
-18 22 -20 43 -7 12 8 12 12 2 25 -7 8 -10 20 -6 26 8 13 15 50 9 50 -3 0 -21
-7 -41 -15 -19 -8 -39 -15 -44 -15 -15 0 -10 30 6 36 27 11 16 27 -14 21 -23
-5 -30 -2 -34 13 -5 21 -37 28 -37 8 0 -6 -3 -8 -6 -5 -4 4 -2 13 5 21 9 11 7
15 -9 19 -11 3 -20 12 -20 21 0 19 -16 21 -26 4 -4 -7 -3 -8 5 -4 9 6 11 -4 6
-40 -5 -47 -27 -78 -33 -49 -2 8 -5 15 -8 15 -10 0 -44 -36 -44 -47 0 -6 -9
-11 -20 -10 -15 1 -18 6 -14 24 4 15 2 23 -7 23 -8 0 -6 7 7 19 10 10 23 15
28 11 5 -5 15 -2 23 6 13 12 12 16 -1 29 -17 18 -46 20 -46 4 0 -8 -5 -8 -15
1 -8 7 -12 16 -9 21 3 5 -1 9 -9 9 -8 0 -17 10 -20 22 -5 17 -9 19 -20 10 -8
-7 -16 -9 -20 -6 -3 3 -3 -4 0 -15 4 -16 2 -20 -9 -16 -19 7 -42 -20 -32 -37
4 -7 -3 -4 -17 7 -13 11 -26 21 -28 22 -2 1 2 9 9 18 18 22 5 30 -25 17 -24
-11 -25 -10 -22 22 1 19 6 32 10 29 12 -7 -4 91 -15 98 -6 4 -4 67 5 162 15
151 16 157 44 181 l28 25 238 1 c233 0 237 0 237 21 0 21 -1 21 -241 13 -238
-7 -240 -7 -255 15 -19 26 -55 27 -77 3 -22 -24 -22 -56 -1 -77 13 -13 15 -28
11 -68 -19 -167 -28 -231 -34 -239 -3 -6 -7 -42 -8 -80 -3 -64 -6 -73 -32 -94
-15 -13 -36 -31 -46 -41 -16 -15 -17 -15 -12 -1 4 9 2 19 -4 23 -10 5 -15 -7
-12 -28 1 -9 -22 -4 -30 7 -9 12 -31 -3 -23 -16 4 -7 2 -8 -4 -4 -7 4 -12 14
-12 23 0 9 -6 13 -14 10 -7 -3 -22 0 -32 7 -24 17 -74 29 -74 18 0 -4 5 -13
11 -19 8 -8 3 -19 -20 -42 -17 -17 -31 -27 -31 -23 0 4 -5 -1 -11 -10 -12 -22
-47 -24 -55 -4 -5 14 -34 11 -32 -2 2 -19 -3 -30 -17 -35 -11 -5 -13 0 -8 23
4 21 2 30 -8 30 -10 0 -10 3 -1 12 14 14 16 52 2 43 -14 -8 -13 -2 5 31 9 18
11 30 4 35 -5 3 -9 12 -7 20 2 8 -3 13 -9 11 -21 -4 -14 15 7 21 12 3 20 14
20 26 0 30 21 71 37 71 7 0 13 7 13 15 0 18 -24 20 -37 2 -6 -6 -13 -25 -17
-41 -6 -23 -9 -27 -16 -15 -8 12 -12 11 -27 -4 -14 -14 -15 -19 -5 -26 9 -5
11 -17 6 -36 -4 -17 -2 -30 5 -34 13 -8 5 -41 -10 -41 -9 0 -12 20 -12 73 0
16 -5 27 -13 27 -16 0 -17 13 -5 58 12 39 -3 43 -17 5 -6 -16 -11 -21 -11 -13
-1 13 -2 13 -11 0 -7 -11 -11 -8 -20 15 -7 17 -14 41 -17 55 -7 38 -23 49 -23
16 l0 -29 -20 26 c-11 14 -20 30 -20 36 0 6 -7 8 -15 5 -10 -4 -13 -18 -11
-49 4 -56 -20 -51 -26 5 -2 21 1 36 6 33 5 -3 7 6 3 22 -3 18 1 34 10 43 7 8
12 16 10 18 -7 8 -37 -8 -32 -16 3 -4 -2 -13 -9 -19 -12 -10 -18 1 -33 68 -14
64 -22 81 -35 81 -11 0 -18 -7 -18 -18 0 -10 -22 -39 -48 -65 l-48 -47 -48 16
c-26 9 -53 25 -59 35 -7 11 -15 19 -19 19 -12 0 -10 -52 3 -89 12 -35 29 -41
29 -11 0 23 6 24 38 6 22 -12 22 -14 8 -28 -9 -9 -24 -14 -36 -11 -24 6 -25
-1 -5 -86 18 -74 14 -91 -5 -29 -7 24 -19 63 -28 88 -19 60 -21 80 -28 250 -3
83 -2 162 4 185 9 35 10 37 11 11 l1 -29 25 27 c13 14 28 26 32 26 4 0 29 7
54 14 l47 14 32 -40 c19 -23 33 -53 34 -71 3 -51 23 -42 42 17 19 59 15 77
-11 56 -14 -12 -20 -9 -40 16 l-23 29 21 12 c31 17 54 16 61 -4 9 -23 22 -7
40 55 16 54 9 65 -22 34 -10 -10 -45 -24 -77 -31 l-59 -13 -33 38 c-21 25 -33
50 -33 68 0 40 -20 21 -37 -36 -13 -44 -9 -63 7 -38 11 17 36 6 54 -23 8 -13
7 -20 -4 -27 -20 -13 -60 -13 -60 1 0 22 -24 1 -36 -32 -9 -24 -13 -28 -14
-14 -1 19 -2 19 -12 -2 -6 -13 -16 -23 -22 -23 -7 0 -6 -3 1 -8 9 -6 11 -24 6
-60 -5 -45 -9 -52 -28 -52 -24 0 -24 2 -3 138 9 60 15 75 32 82 12 5 15 9 9 9
-27 2 -12 81 16 81 12 0 13 2 3 8 -19 13 25 115 47 107 13 -5 13 -4 4 6 -10
10 -7 23 14 61 28 52 34 56 53 33 10 -12 6 -24 -19 -65 -17 -27 -27 -50 -23
-50 4 0 27 34 51 76 89 157 209 283 373 394 49 33 85 60 81 60 -5 0 -25 -11
-45 -25 -41 -28 -63 -32 -72 -12 -3 6 -3 2 -1 -9 4 -16 -3 -28 -29 -48 -19
-14 -37 -26 -41 -26 -3 0 -18 -12 -33 -28 -56 -57 -68 -64 -82 -48 -10 13 -5
21 27 51 21 19 44 35 51 35 6 0 12 4 12 10 0 8 59 56 106 87 15 9 -22 12 -181
12 -118 1 -194 -3 -186 -8 7 -5 10 -14 6 -21 -5 -8 -14 -5 -31 11 -13 12 -27
20 -30 17 -3 -4 4 -11 15 -18 12 -6 21 -15 21 -21 0 -6 -29 -43 -64 -83 -35
-39 -80 -97 -100 -128 -20 -32 -39 -58 -42 -58 -3 0 -2 5 1 10 3 6 1 10 -5 10
-7 0 -10 -7 -7 -15 4 -8 -16 -61 -43 -117 -27 -57 -61 -146 -75 -198 -35 -121
-75 -322 -68 -334 4 -5 0 -6 -8 0 -8 5 -22 7 -31 6 -10 -2 -18 2 -18 7 0 6 -7
11 -15 11 -16 0 -19 -20 -9 -57 4 -13 10 -20 15 -17 5 3 9 0 9 -5 0 -10 -14
-15 -32 -12 -5 0 -8 -6 -8 -15 0 -8 4 -13 8 -10 5 3 8 -5 7 -17 -1 -12 -9 -23
-18 -25 -19 -4 -22 -18 -7 -27 6 -3 10 -33 10 -66 0 -33 -4 -59 -10 -59 -25 0
-6 -19 23 -23 17 -3 0 -3 -40 -2 -48 2 -73 0 -76 -8 -3 -9 -21 -8 -73 2 -38 7
-80 13 -94 14 -60 4 -238 116 -223 140 3 6 2 7 -4 4 -10 -6 -19 3 -67 68 -17
22 -38 48 -49 57 -10 9 -16 22 -12 27 3 6 2 11 -4 11 -6 0 -13 11 -17 25 -3
14 -11 25 -18 25 -23 0 -71 96 -79 160 -4 30 -3 38 3 25 8 -19 9 -19 9 3 1 12
1 25 2 29 0 4 -5 9 -12 12 -7 2 -9 -1 -5 -8 4 -6 2 -11 -3 -11 -6 0 -11 21
-11 50 0 43 2 49 18 43 9 -4 20 -11 24 -17 4 -6 8 1 8 17 0 26 -15 38 -22 16
-2 -6 -11 -7 -22 -3 -17 7 -18 15 -12 93 6 89 27 179 33 149 3 -10 10 -15 19
-11 12 4 14 0 8 -23 -9 -40 -24 -54 -25 -23 0 22 -1 22 -8 4 -6 -13 -4 -23 5
-28 21 -12 18 -67 -3 -67 -15 0 -16 -2 -3 -10 25 -16 30 -12 30 30 0 58 22
132 37 126 7 -3 15 -1 18 4 10 16 38 11 65 -11 14 -11 18 -17 10 -13 -8 4 0
-7 19 -25 19 -17 29 -31 23 -31 -7 0 -12 -9 -12 -19 0 -10 -7 -22 -16 -25 -14
-5 -13 -10 8 -31 12 -14 30 -25 38 -25 12 0 12 2 2 8 -16 11 -5 42 15 42 8 0
11 -4 8 -10 -3 -5 -2 -10 4 -10 5 0 11 4 13 10 2 5 20 10 41 12 42 2 43 4 22
24 -16 16 -20 35 -7 33 19 -3 22 3 12 21 -14 27 -3 45 17 29 9 -8 12 -21 8
-36 -4 -16 -1 -23 9 -23 8 0 16 5 18 12 3 7 18 13 34 13 17 1 29 7 30 16 3 42
5 49 12 49 5 0 14 -10 20 -22 l11 -23 6 22 c6 17 10 19 20 10 7 -7 10 -16 8
-22 -3 -5 2 -2 13 7 12 12 15 21 8 28 -14 14 -5 75 15 97 10 10 15 25 13 33
-3 11 -2 12 8 4 9 -9 9 -17 1 -32 -14 -26 -15 -54 -2 -33 5 8 16 11 30 6 25
-8 27 0 6 21 -22 22 -19 32 17 50 27 14 29 18 15 26 -12 6 -17 22 -17 49 0 27
4 38 11 33 6 -3 9 -21 7 -39 -2 -19 0 -32 4 -29 12 8 35 -48 42 -106 3 -30 13
-102 21 -160 10 -74 11 -108 3 -117 -16 -19 -424 -18 -521 1 -94 19 -154 17
-160 -5 -7 -26 5 -36 51 -44 23 -4 42 -10 42 -14 0 -13 -51 -32 -69 -26 -14 4
-16 -1 -13 -29 l4 -34 34 23 c19 13 47 26 62 30 15 3 36 13 47 21 20 15 20 15
0 30 -17 13 11 14 244 13 170 0 270 -4 281 -11 36 -23 75 18 48 50 -14 16 -42
129 -36 149 1 4 -1 26 -5 48 -23 136 -19 239 8 228 21 -7 55 -66 55 -94 0 -17
3 -20 11 -12 8 8 8 17 0 31 -6 11 -8 27 -5 35 3 9 -7 22 -28 35 -21 14 -27 22
-16 22 9 0 20 -4 23 -10 3 -5 14 -10 24 -10 10 0 23 -10 29 -22 l11 -23 0 23
c1 24 7 24 60 4 10 -4 12 -1 6 8 -6 10 -2 11 18 6 20 -5 25 -3 21 8 -3 8 -1
17 5 21 6 3 11 2 11 -2 0 -5 7 -18 16 -29 8 -10 13 -14 10 -7 -4 6 -2 14 4 18
12 7 52 -13 46 -23 -2 -4 8 -7 22 -6 15 0 26 4 25 8 -12 50 -13 89 -3 101 19
23 -39 19 -70 -5 -33 -26 -53 -26 -45 0 5 16 2 20 -17 20 -39 0 -67 -11 -62
-24 3 -7 -2 -13 -10 -13 -8 0 -14 5 -13 10 4 18 -46 25 -195 26 -136 1 -147 0
-142 -16 5 -17 5 -17 -9 0 -11 14 -30 17 -96 17 -52 0 -80 -4 -76 -10 3 -5 1
-10 -4 -10 -6 0 -11 5 -11 10 0 6 -18 10 -40 10 -22 0 -40 -4 -40 -10 0 -5 -7
-10 -16 -10 -8 0 -12 5 -9 10 4 6 -31 10 -98 10 -87 0 -106 -3 -119 -17z m582
-9 c0 -8 -19 -13 -24 -6 -3 5 1 9 9 9 8 0 15 -2 15 -3z m30 -4 c0 -5 -2 -10
-4 -10 -3 0 -8 5 -11 10 -3 6 -1 10 4 10 6 0 11 -4 11 -10z m-400 -8 c0 -11
-41 -44 -48 -38 -3 3 3 15 13 26 18 20 35 26 35 12z m82 -11 c12 -14 13 -22 5
-30 -8 -8 -7 -14 2 -23 11 -10 13 -10 7 0 -5 8 0 12 14 12 19 0 20 -1 6 -16
-18 -17 -21 -28 -6 -19 6 4 10 -11 10 -36 0 -34 -3 -40 -12 -31 -16 16 -28 15
-28 -3 0 -19 -17 -19 -54 0 -15 8 -36 15 -45 15 -23 0 -51 34 -41 50 24 39 88
99 105 99 11 1 28 -8 37 -18z m368 -1 c0 -5 -4 -10 -10 -10 -5 0 -10 5 -10 10
0 6 5 10 10 10 6 0 10 -4 10 -10z m362 -22 c-6 -6 -15 -7 -22 -3 -8 5 -6 11 7
20 20 15 32 0 15 -17z m-412 18 c0 -3 -5 -8 -12 -12 -7 -4 -8 -3 -4 4 7 12 16
16 16 8z m317 -13 c-4 -3 -10 -3 -14 0 -3 4 0 7 7 7 7 0 10 -3 7 -7z m-767
-21 c0 -4 -7 -18 -16 -30 -21 -30 -38 -17 -18 14 16 23 34 32 34 16z m335 -51
c3 -7 4 -15 3 -16 -9 -8 -79 -11 -84 -4 -5 8 13 13 44 12 9 -1 10 2 2 12 -9
11 -7 14 9 12 11 -1 23 -8 26 -16z m-383 -21 c-2 -7 2 -16 7 -20 7 -4 6 -13
-4 -26 -13 -18 -14 -18 -9 6 5 24 5 24 -10 6 -9 -11 -19 -17 -22 -13 -4 4 -1
13 6 22 7 8 10 21 7 29 -4 9 0 13 11 11 9 -1 16 -8 14 -15z m1305 -56 c7 -20
-64 -95 -83 -87 -22 8 -16 25 23 65 41 42 51 46 60 22z m-1337 -11 c-1 -13
-27 -43 -32 -37 -10 10 4 44 18 44 8 0 14 -3 14 -7z m35 -23 c8 0 17 -5 21
-12 4 -6 3 -8 -3 -5 -6 4 -14 -3 -18 -16 -6 -19 -8 -19 -12 -4 -6 23 -20 22
-28 -4 -4 -11 -9 -18 -12 -15 -3 3 2 22 12 43 10 21 20 32 22 26 3 -7 11 -13
18 -13z m60 10 c3 -5 1 -10 -4 -10 -6 0 -11 5 -11 10 0 6 2 10 4 10 3 0 8 -4
11 -10z m242 -7 c-4 -3 -10 -3 -14 0 -3 4 0 7 7 7 7 0 10 -3 7 -7z m-172 -12
c3 -5 1 -12 -5 -16 -5 -3 -10 1 -10 9 0 18 6 21 15 7z m-202 -53 c-6 -31 -23
-38 -23 -10 0 16 20 46 26 39 1 -1 0 -14 -3 -29z m1285 3 c10 -6 7 -18 -15
-54 -29 -48 -41 -55 -60 -36 -9 9 -5 23 18 55 31 46 36 49 57 35z m-98 -75 c0
-3 -5 -8 -12 -12 -7 -4 -8 -3 -4 4 7 12 16 16 16 8z m-126 -589 c0 -9 -1 -33
-2 -52 -3 -53 -29 -46 -37 9 -4 25 -4 50 0 56 10 17 40 7 39 -13z m-1154 -27
c0 -30 103 -146 215 -244 30 -25 30 -26 8 -32 -13 -3 -23 -13 -23 -21 0 -9 6
-13 15 -9 21 8 58 -52 49 -79 -3 -11 -6 -28 -7 -38 -1 -10 -29 -46 -64 -80
-59 -60 -65 -63 -133 -75 -90 -15 -143 -16 -134 -1 3 6 2 14 -4 18 -8 5 -8 33
0 99 11 82 14 93 30 89 21 -6 21 -3 9 41 -10 33 3 44 26 21 12 -12 65 -1 57
12 -3 5 -1 9 4 9 11 0 4 38 -9 56 -6 7 -1 18 11 29 26 23 25 50 -1 69 -15 10
-20 22 -17 40 3 15 0 27 -7 30 -8 3 -11 -2 -8 -15 4 -13 0 -19 -11 -19 -12 0
-16 10 -16 44 0 24 -3 52 -7 62 -4 12 -3 15 5 10 7 -4 12 -11 12 -16z m867
-77 c-4 -3 -10 -3 -14 0 -3 4 0 7 7 7 7 0 10 -3 7 -7z m280 -35 c-3 -7 -5 -2
-5 12 0 14 2 19 5 13 2 -7 2 -19 0 -25z m-1127 -8 c0 -5 -4 -10 -10 -10 -5 0
-10 5 -10 10 0 6 5 10 10 10 6 0 10 -4 10 -10z m822 -26 c6 -52 -2 -94 -18
-94 -11 0 -14 16 -14 65 0 49 3 65 14 65 8 0 15 -14 18 -36z m318 -9 c0 -33
-15 -33 -16 0 -1 14 2 25 7 25 5 0 9 -11 9 -25z m-1133 -12 c-4 -3 -7 0 -7 7
0 7 3 10 7 7 3 -4 3 -10 0 -14z m1417 -25 c16 -16 9 -48 -10 -42 -50 15 -48
13 -29 34 21 23 22 24 39 8z m-557 -35 c-3 -10 -5 -4 -5 12 0 17 2 24 5 18 2
-7 2 -21 0 -30z m285 -18 c2 -19 -1 -36 -7 -38 -6 -3 -11 13 -11 39 -2 51 12
50 18 -1z m-783 -29 c55 -28 79 -53 40 -41 -35 11 -118 56 -131 72 -14 17 16
7 91 -31z m1041 -1 c71 -24 44 -43 -131 -91 -9 -3 -19 3 -23 12 -10 25 72 106
99 98 11 -4 36 -12 55 -19z m-530 -6 c0 -5 -13 -9 -30 -9 -32 0 -41 16 -12 22
21 5 42 -1 42 -13z m-1023 -6 c-4 -3 -7 0 -7 7 0 7 3 10 7 7 3 -4 3 -10 0 -14z
m55 -12 c4 -24 1 -27 -16 -23 -11 3 -15 7 -8 10 8 2 9 9 2 23 -8 15 -7 19 4
19 8 0 16 -13 18 -29z m85 22 c-4 -3 -10 -3 -14 0 -3 4 0 7 7 7 7 0 10 -3 7
-7z m312 -42 c0 -3 -4 -15 -9 -26 -7 -18 -9 -18 -19 9 -6 16 -14 33 -17 38 -3
4 6 3 20 -4 14 -6 26 -14 25 -17z m1251 -66 c0 -8 -6 -15 -14 -15 -8 0 -17 -7
-20 -15 -4 -11 0 -15 11 -13 9 2 18 -3 21 -11 3 -10 0 -12 -11 -8 -9 3 -18 0
-21 -9 -3 -8 1 -14 9 -14 8 0 15 -7 15 -15 0 -9 10 -15 23 -16 14 0 17 -2 7
-6 -8 -3 -19 -12 -23 -20 -6 -10 -13 -10 -28 -3 -15 9 -19 7 -19 -5 0 -14 12
-20 33 -16 11 2 -1 -17 -32 -53 -59 -66 -62 -68 -76 -56 -9 8 -14 7 -19 -5 -3
-8 -12 -15 -21 -15 -8 0 -15 -5 -15 -11 0 -8 -5 -8 -15 1 -12 10 -13 16 -4 27
9 10 9 12 -3 8 -9 -4 -22 8 -36 34 -13 22 -22 42 -21 43 1 2 -9 21 -23 43 -34
55 -41 75 -22 68 9 -3 14 1 14 15 0 12 9 22 23 26 93 28 131 35 136 28 3 -5
14 -8 23 -7 9 2 22 -3 28 -10 9 -11 16 -8 38 15 30 33 42 37 42 15z m-765 -17
c33 -5 75 -14 93 -21 32 -11 43 -27 20 -27 -7 0 -5 -5 5 -11 21 -13 22 -45 1
-53 -13 -5 -15 -1 -12 18 4 18 -2 30 -23 45 -33 24 -58 28 -35 6 8 -9 20 -32
25 -52 9 -30 7 -38 -7 -49 -19 -15 -29 -17 -51 -14 -13 1 -13 -1 -2 -14 16
-19 52 -21 48 -3 -1 6 5 12 13 12 10 0 14 -8 13 -22 -2 -13 -1 -23 1 -23 2 0
20 -7 41 -16 31 -13 37 -13 32 -1 -3 7 -2 20 3 27 5 8 25 -20 59 -86 28 -55
78 -136 111 -182 61 -85 72 -104 45 -82 -13 11 -15 8 -15 -13 0 -14 5 -29 10
-32 6 -3 10 -1 10 4 0 6 8 11 17 11 20 0 103 -78 103 -97 0 -7 7 -13 15 -13
15 0 14 -28 -7 -100 -23 -81 -41 -121 -54 -116 -7 3 -20 -7 -30 -22 l-17 -27
21 19 c36 31 25 2 -22 -61 -24 -32 -42 -62 -39 -67 4 -5 1 -6 -5 -2 -6 4 -18
-6 -27 -24 -8 -16 -19 -30 -24 -30 -4 0 -19 -9 -32 -21 -32 -28 -108 -66 -144
-72 -17 -3 -53 -10 -82 -16 -101 -20 -149 -26 -210 -26 -50 0 -65 4 -78 20 -9
11 -14 14 -10 8 10 -21 -58 -3 -76 20 -10 12 -21 17 -29 12 -21 -13 -146 67
-135 86 4 5 0 6 -8 3 -8 -3 -20 3 -28 12 -9 12 -10 15 -2 10 27 -15 11 13 -27
52 -23 22 -36 43 -31 46 5 3 11 0 14 -6 2 -7 8 -10 12 -6 5 5 0 18 -11 30 -15
18 -16 20 -2 9 15 -11 21 -11 33 -1 8 7 15 10 15 7 0 -3 3 -13 6 -22 4 -9 3
-15 -2 -14 -21 4 -25 -2 -13 -18 13 -16 12 -17 -3 -4 -36 28 -17 -7 29 -52 26
-26 41 -47 34 -47 -7 0 -9 -4 -6 -10 4 -6 11 -5 20 3 11 10 9 17 -15 42 -28
31 -29 47 -2 78 15 17 38 24 28 9 -3 -5 1 -9 9 -9 8 0 15 6 15 13 0 8 9 11 21
9 25 -5 34 -12 34 -28 0 -12 25 -12 55 -1 11 5 10 8 -7 15 -13 4 -23 13 -23
20 0 6 6 9 13 6 8 -3 12 8 13 34 1 25 -3 38 -10 37 -6 -2 -11 1 -11 6 0 5 -10
13 -23 17 -13 5 -20 13 -17 19 8 13 35 13 35 -1 0 -5 5 -7 11 -4 6 4 8 14 5
22 -3 8 -2 22 4 32 7 14 4 21 -15 31 -31 16 -32 30 -4 30 18 0 19 2 9 15 -10
13 -9 15 9 15 11 0 21 4 21 8 0 12 40 29 119 51 51 14 71 16 82 7 9 -6 42 -96
74 -201 32 -104 60 -196 63 -202 3 -9 -6 -13 -27 -13 -28 0 -43 -14 -22 -22 4
-1 11 -27 15 -56 8 -62 -7 -70 -30 -15 -9 20 -23 47 -32 61 l-16 24 -18 -63
c-22 -77 -22 -79 -4 -79 8 0 14 6 13 13 -1 37 4 67 12 67 12 0 32 -60 24 -73
-4 -7 5 -8 27 -4 18 4 41 7 52 7 15 0 18 3 11 12 -14 17 -23 107 -12 114 5 3
9 -8 9 -25 0 -17 10 -42 24 -58 l24 -28 7 38 c6 30 3 44 -12 65 -32 43 -148
409 -145 455 3 32 -25 49 -42 26 -12 -17 -57 -31 -163 -53 -76 -16 -113 -12
-113 10 0 8 -4 14 -10 14 -5 0 -10 5 -10 12 0 6 9 3 20 -7 18 -16 20 -16 20
-2 0 10 5 17 11 17 5 0 8 4 4 9 -3 5 -17 8 -31 5 -20 -4 -25 -1 -24 13 4 32 0
44 -10 38 -13 -8 -66 21 -74 40 -11 30 -7 47 10 41 9 -3 31 1 50 10 23 11 47
14 71 11 26 -5 33 -3 25 5 -12 12 -54 14 -92 4 -25 -6 -25 -6 -2 5 12 7 22 16
22 21 0 4 9 8 20 8 22 0 27 16 8 23 -9 3 -6 10 8 20 17 13 23 38 15 65 -1 1
-11 -2 -23 -8 -22 -11 -22 -10 -4 4 11 9 26 16 33 16 7 0 13 6 13 13 0 6 14
20 30 29 39 22 38 36 -5 44 -48 9 -60 27 -49 71 8 32 16 40 64 60 46 20 35 26
-14 7 -9 -3 -16 -2 -16 4 0 12 100 46 109 36 3 -4 0 -9 -6 -11 -8 -3 0 -17 22
-37 42 -40 43 -55 9 -90 l-27 -26 33 0 c23 0 31 4 27 13 -7 19 8 41 23 32 6
-4 9 -13 6 -21 -4 -10 4 -14 29 -14 l33 0 -29 29 c-35 35 -36 49 -8 85 24 31
20 41 -11 31 -15 -5 -19 -12 -15 -25 7 -22 -14 -38 -25 -19 -5 7 -6 17 -4 21
3 4 -6 8 -20 8 -20 0 -26 5 -26 21 0 17 5 20 25 17 14 -3 28 -2 30 2 7 11 67
10 140 -2z m442 -45 c-4 -3 -7 0 -7 7 0 7 3 10 7 7 3 -4 3 -10 0 -14z m1020
-25 c-3 -8 -6 -5 -6 6 -1 11 2 17 5 13 3 -3 4 -12 1 -19z m-1852 -35 c-2 -10
-4 -19 -4 -21 -1 -1 -7 3 -15 10 -10 9 -11 15 -2 20 18 12 24 9 21 -9z m545
-35 c-1 -13 -7 -34 -14 -47 -13 -24 -13 -24 -20 13 -8 40 -2 56 20 56 8 0 14
-9 14 -22z m-570 8 c0 -3 -5 -8 -12 -12 -7 -4 -8 -3 -4 4 7 12 16 16 16 8z
m36 -23 c-10 -10 -19 5 -10 18 6 11 8 11 12 0 2 -7 1 -15 -2 -18z m1741 -30
c-4 -3 -7 0 -7 7 0 7 3 10 7 7 3 -4 3 -10 0 -14z m-2057 -7 c-24 -22 -60 -30
-60 -12 0 13 18 21 60 25 13 1 13 -1 0 -13z m302 2 c18 -15 30 -56 18 -63 -8
-5 -60 54 -60 68 0 11 25 8 42 -5z m1298 -18 c6 -11 8 -20 6 -20 -3 0 -10 9
-16 20 -6 11 -8 20 -6 20 3 0 10 -9 16 -20z m-1350 -30 c11 -16 20 -37 20 -49
0 -11 8 -25 18 -30 10 -6 12 -11 5 -12 -7 -1 -18 -2 -23 -3 -6 0 -14 -5 -18
-11 -11 -15 -32 -17 -32 -3 0 10 -2 10 -8 0 -7 -10 -15 -9 -40 4 -18 8 -32 20
-32 25 0 5 -7 9 -15 9 -13 0 -11 6 6 30 12 16 26 27 31 24 5 -3 7 -1 6 4 -2 6
3 19 11 30 18 25 45 18 71 -18z m120 9 c0 -5 -4 -9 -10 -9 -5 0 -10 7 -10 16
0 8 5 12 10 9 6 -3 10 -10 10 -16z m1595 11 c3 -5 -1 -10 -10 -10 -9 0 -13 5
-10 10 3 6 8 10 10 10 2 0 7 -4 10 -10z m189 -15 c-4 -8 -8 -15 -10 -15 -2 0
-4 7 -4 15 0 8 4 15 10 15 5 0 7 -7 4 -15z m-517 -2 c-4 -3 -10 -3 -14 0 -3 4
0 7 7 7 7 0 10 -3 7 -7z m930 -20 c-4 -3 -7 0 -7 7 0 7 3 10 7 7 3 -4 3 -10 0
-14z m-862 -3 c3 -5 1 -10 -4 -10 -6 0 -11 5 -11 10 0 6 2 10 4 10 3 0 8 -4
11 -10z m-88 -17 c-4 -3 -7 0 -7 7 0 7 3 10 7 7 3 -4 3 -10 0 -14z m135 -22
l20 -20 -21 6 c-12 3 -21 1 -21 -6 0 -5 -6 -8 -14 -5 -9 4 -16 -3 -19 -18 l-4
-23 -2 23 c-1 16 6 26 18 29 12 3 17 11 14 19 -7 20 4 17 29 -5z m458 15 c0
-3 -4 -8 -10 -11 -5 -3 -10 -1 -10 4 0 6 5 11 10 11 6 0 10 -2 10 -4z m35 -6
c3 -5 1 -10 -4 -10 -6 0 -11 5 -11 10 0 6 2 10 4 10 3 0 8 -4 11 -10z m-680
-10 c3 -5 1 -10 -4 -10 -6 0 -11 5 -11 10 0 6 2 10 4 10 3 0 8 -4 11 -10z
m430 0 c3 -5 1 -10 -4 -10 -6 0 -11 5 -11 10 0 6 2 10 4 10 3 0 8 -4 11 -10z
m-328 -17 c-4 -3 -7 0 -7 7 0 7 3 10 7 7 3 -4 3 -10 0 -14z m230 -10 c-4 -3
-10 -3 -14 0 -3 4 0 7 7 7 7 0 10 -3 7 -7z m97 -9 c9 -8 16 -17 16 -19 0 -2
-19 -13 -42 -25 -23 -12 -37 -16 -31 -8 6 7 12 18 12 23 2 22 13 45 21 45 5 0
16 -7 24 -16z m184 -9 c-3 -3 -9 2 -12 12 -6 14 -5 15 5 6 7 -7 10 -15 7 -18z
m-318 5 c0 -5 -5 -10 -11 -10 -5 0 -7 5 -4 10 3 6 8 10 11 10 2 0 4 -4 4 -10z
m297 -17 c-4 -3 -7 0 -7 7 0 7 3 10 7 7 3 -4 3 -10 0 -14z m-397 -21 c0 -9 11
-27 25 -42 25 -26 26 -70 0 -70 -15 0 -27 38 -14 46 15 9 10 24 -6 18 -14 -6
-19 5 -16 32 1 7 -6 14 -14 18 -9 3 -14 10 -10 15 8 15 35 1 35 -17z m-420 8
c0 -5 -2 -10 -4 -10 -3 0 -8 5 -11 10 -3 6 -1 10 4 10 6 0 11 -4 11 -10z m715
-13 c8 -9 10 -19 5 -28 -7 -11 -10 -10 -16 4 -5 14 -9 15 -20 6 -17 -14 -29
-6 -21 16 8 19 34 20 52 2z m-740 -7 c3 -5 4 -10 1 -10 -3 0 -8 5 -11 10 -3 6
-4 10 -1 10 3 0 8 -4 11 -10z m675 -6 c0 -8 -5 -12 -10 -9 -6 4 -8 11 -5 16 9
14 15 11 15 -7z m-366 -35 c-6 -11 -24 -2 -24 11 0 5 7 7 15 4 8 -4 12 -10 9
-15z m366 -28 c0 -4 -6 -8 -14 -8 -8 0 -12 6 -9 14 5 13 23 9 23 -6z m77 -3
c-3 -8 -6 -5 -6 6 -1 11 2 17 5 13 3 -3 4 -12 1 -19z m-570 5 c-4 -3 -10 -3
-14 0 -3 4 0 7 7 7 7 0 10 -3 7 -7z m90 -6 c-3 -7 4 -19 14 -25 22 -14 25 -38
7 -45 -20 -7 0 -21 32 -23 32 -2 41 12 13 19 -11 3 -6 5 11 6 21 1 27 -3 23
-13 -7 -17 26 -31 44 -20 12 7 29 -12 29 -34 0 -8 -5 -10 -12 -6 -10 6 -10 4
0 -8 11 -14 10 -17 -8 -23 -12 -4 -19 -13 -17 -20 6 -15 -75 23 -146 67 -37
24 -45 33 -36 44 6 7 13 28 16 46 3 18 10 36 16 40 17 11 20 10 14 -5z m807
-2 c3 -8 1 -15 -4 -15 -6 0 -10 7 -10 15 0 8 2 15 4 15 2 0 6 -7 10 -15z
m-164 -5 c0 -5 -4 -10 -10 -10 -5 0 -10 5 -10 10 0 6 5 10 10 10 6 0 10 -4 10
-10z m-765 -10 c3 -5 1 -10 -4 -10 -6 0 -11 5 -11 10 0 6 2 10 4 10 3 0 8 -4
11 -10z m539 -5 c-4 -8 -11 -15 -16 -15 -6 0 -5 6 2 15 7 8 14 15 16 15 2 0 1
-7 -2 -15z m-1924 -15 c-6 -11 -16 -20 -22 -20 -7 0 -3 -7 8 -15 11 -9 14 -14
6 -15 -7 0 -12 -8 -10 -17 2 -12 -5 -19 -21 -21 -21 -3 -23 -1 -19 27 4 31 -6
43 -16 19 -4 -11 -2 10 3 42 1 3 6 -2 11 -10 8 -12 10 -11 10 8 0 18 6 22 30
22 28 0 30 -2 20 -20z m2122 -29 c-4 -11 -1 -11 16 -2 22 12 60 15 49 4 -4 -3
0 -11 9 -17 8 -7 18 -31 21 -54 4 -32 10 -42 20 -38 8 3 11 1 8 -4 -3 -6 -1
-10 4 -10 14 0 14 -57 1 -65 -24 -15 -8 -27 28 -20 27 5 34 4 26 -4 -15 -16
-123 -27 -224 -23 -81 3 -86 5 -98 30 -17 36 -15 62 4 62 8 0 22 6 29 14 12
12 12 18 -6 40 -11 14 -25 24 -30 21 -5 -4 -9 1 -9 9 0 8 5 18 10 21 6 3 10 2
10 -3 0 -6 16 -10 35 -10 35 0 47 11 23 22 -9 3 -8 8 5 16 9 6 17 18 17 26 0
22 43 36 51 15 3 -9 4 -22 1 -30z m-502 29 c0 -5 -2 -10 -4 -10 -3 0 -8 5 -11
10 -3 6 -1 10 4 10 6 0 11 -4 11 -10z m680 -15 c0 -8 -4 -15 -10 -15 -5 0 -10
7 -10 15 0 8 5 15 10 15 6 0 10 -7 10 -15z m27 8 c-4 -3 -10 -3 -14 0 -3 4 0
7 7 7 7 0 10 -3 7 -7z m-2202 -13 c3 -5 4 -10 1 -10 -3 0 -8 5 -11 10 -3 6 -4
10 -1 10 3 0 8 -4 11 -10z m1522 -17 c-4 -3 -7 0 -7 7 0 7 3 10 7 7 3 -4 3
-10 0 -14z m-1557 -7 c0 -3 -5 -8 -12 -12 -7 -4 -8 -3 -4 4 7 12 16 16 16 8z
m1328 -8 c16 -16 15 -28 -3 -28 -8 0 -15 2 -15 4 0 2 -3 11 -6 20 -7 19 7 21
24 4z m892 2 c0 -5 -5 -10 -11 -10 -5 0 -7 5 -4 10 3 6 8 10 11 10 2 0 4 -4 4
-10z m37 -27 c-4 -3 -7 0 -7 7 0 7 3 10 7 7 3 -4 3 -10 0 -14z m-2283 -5 c-3
-4 -12 -8 -20 -8 -8 0 -13 4 -10 8 3 5 12 9 20 9 8 0 13 -4 10 -9z m1406 -2
c0 -2 -7 -9 -15 -16 -12 -10 -15 -10 -15 4 0 9 7 16 15 16 8 0 15 -2 15 -4z
m980 -26 c0 -4 -11 -5 -25 -2 -14 2 -23 8 -20 12 6 10 45 1 45 -10z m-925 -12
c19 -13 35 -31 35 -41 0 -16 -2 -17 -15 -3 -8 8 -15 20 -15 27 0 10 -3 10 -11
2 -15 -15 -59 4 -52 23 7 19 18 18 58 -8z m828 1 c-4 -13 -9 -17 -15 -11 -11
11 -3 32 12 32 4 0 6 -9 3 -21z m-36 -21 c-3 -8 -6 -5 -6 6 -1 11 2 17 5 13 3
-3 4 -12 1 -19z m-490 -5 c-4 -3 -7 0 -7 7 0 7 3 10 7 7 3 -4 3 -10 0 -14z
m178 8 c3 -5 1 -12 -4 -15 -5 -3 -11 1 -15 9 -6 16 9 21 19 6z m-2088 -18 c-4
-3 -7 0 -7 7 0 7 3 10 7 7 3 -4 3 -10 0 -14z m233 2 c0 -8 -6 -15 -12 -15 -10
0 -9 -3 1 -9 10 -6 10 -10 1 -16 -6 -4 -13 -5 -15 -4 -4 5 -8 31 -6 47 2 17
31 15 31 -3z m1657 -2 c-4 -3 -7 0 -7 7 0 7 3 10 7 7 3 -4 3 -10 0 -14z m100
-13 c-3 -10 0 -21 7 -24 6 -2 4 -5 -6 -5 -9 -1 -19 5 -21 12 -3 6 -4 -3 -2
-20 2 -18 0 -33 -5 -33 -12 0 -17 11 -21 44 -3 22 0 30 14 32 11 1 21 5 25 8
11 11 14 6 9 -14z m439 -7 c-10 -10 -19 5 -10 18 6 11 8 11 12 0 2 -7 1 -15
-2 -18z m-749 10 c-4 -3 -10 -3 -14 0 -3 4 0 7 7 7 7 0 10 -3 7 -7z m1014 -36
c-12 -12 -85 -36 -93 -30 -17 10 -6 21 40 40 32 14 49 16 54 9 4 -6 3 -15 -1
-19z m-974 16 c-4 -3 -10 -3 -14 0 -3 4 0 7 7 7 7 0 10 -3 7 -7z m-1697 -46
c0 -5 -4 -5 -10 -2 -5 3 -10 14 -10 23 0 15 2 15 10 2 5 -8 10 -19 10 -23z
m45 24 c3 -5 1 -12 -5 -16 -5 -3 -10 -1 -10 5 0 6 -5 8 -12 4 -7 -4 -8 -3 -4
4 9 14 23 15 31 3z m1845 -12 c18 -11 -34 -1 -65 13 -13 5 -9 6 15 2 19 -4 42
-10 50 -15z m662 -31 c-4 -4 -21 -10 -38 -14 -23 -4 -33 -2 -37 10 -5 11 1 17
21 22 15 3 32 7 37 8 13 4 26 -17 17 -26z m-2435 15 c-4 -3 -10 -3 -14 0 -3 4
0 7 7 7 7 0 10 -3 7 -7z m1693 -2 c0 -12 -20 -25 -27 -18 -7 7 6 27 18 27 5 0
9 -4 9 -9z m840 -1 c-8 -5 -19 -10 -25 -10 -5 0 -3 5 5 10 8 5 20 10 25 10 6
0 3 -5 -5 -10z m-2653 -27 c-4 -3 -7 0 -7 7 0 7 3 10 7 7 3 -4 3 -10 0 -14z
m93 7 c5 9 16 8 42 -3 30 -13 35 -19 33 -46 -2 -34 -44 -80 -80 -87 -19 -3
-25 4 -43 53 -12 31 -19 61 -15 65 9 15 48 27 52 16 2 -6 6 -5 11 2z m1800 1
c0 -5 18 -7 40 -4 36 5 40 3 40 -16 0 -23 -3 -24 -49 -15 -30 6 -65 44 -41 44
5 0 10 -4 10 -9z m577 -7 c4 -11 -104 -40 -114 -30 -3 3 -3 12 0 20 9 23 107
32 114 10z m-434 -21 c-3 -15 13 -17 22 -3 10 15 35 12 35 -5 0 -16 -44 -20
-87 -9 -34 9 -30 36 5 32 15 -2 26 -8 25 -15z m307 8 c0 -16 -24 -29 -67 -36
-39 -6 -43 -5 -43 13 0 16 8 22 33 25 60 7 77 7 77 -2z m-2330 -11 c0 -5 -2
-10 -4 -10 -3 0 -8 5 -11 10 -3 6 -1 10 4 10 6 0 11 -4 11 -10z m1329 -4 c9
-11 6 -18 -15 -35 -33 -26 -36 -23 -28 17 7 34 24 41 43 18z m871 -5 c0 -16
-7 -18 -47 -17 -36 1 -47 5 -49 19 -2 14 6 17 47 17 41 0 49 -3 49 -19z m317
12 c-4 -3 -10 -3 -14 0 -3 4 0 7 7 7 7 0 10 -3 7 -7z m-151 -32 c-8 -12 -46
-21 -46 -11 0 5 10 11 23 13 12 2 23 5 25 6 2 0 1 -3 -2 -8z m-2346 -36 c0 -5
-5 -3 -10 5 -5 8 -10 20 -10 25 0 6 5 3 10 -5 5 -8 10 -19 10 -25z m2237 18
c-4 -3 -10 -3 -14 0 -3 4 0 7 7 7 7 0 10 -3 7 -7z m-2217 -52 c13 -25 13 -34
0 -26 -16 10 -32 45 -21 45 6 0 15 -9 21 -19z m34 -57 c11 -28 6 -38 -9 -18
-8 10 -15 22 -15 27 0 13 18 7 24 -9z m1516 -94 c0 -5 -10 -12 -22 -16 -13 -4
-26 -12 -30 -18 -6 -8 -8 -7 -8 2 0 17 39 54 50 47 6 -4 10 -10 10 -15z m90 0
c0 -5 -4 -10 -10 -10 -5 0 -10 5 -10 10 0 6 5 10 10 10 6 0 10 -4 10 -10z
m780 -10 c0 -11 -80 -120 -89 -120 -18 1 -29 18 -29 45 1 63 6 74 41 78 61 7
77 7 77 -3z m-940 -26 c0 -21 -17 -17 -23 5 -3 14 -1 18 9 14 8 -3 14 -11 14
-19z m616 16 l134 0 0 -25 c0 -15 -6 -25 -14 -25 -17 0 -28 -24 -15 -37 5 -5
0 -9 -12 -10 -31 -3 -31 -5 -9 -51 24 -49 25 -59 5 -42 -12 10 -15 10 -15 -1
0 -11 -2 -11 -10 1 -5 9 -5 17 1 21 6 3 4 10 -4 18 -12 9 -16 8 -21 -4 -7 -20
-26 -10 -26 15 0 10 -7 20 -14 23 -10 4 -13 1 -9 -9 3 -9 -2 -14 -17 -14 -14
0 -20 -5 -17 -13 3 -8 -1 -14 -9 -14 -8 0 -14 9 -14 19 0 10 -4 18 -10 18 -16
0 -59 53 -65 82 -4 15 -11 30 -16 33 -15 10 -10 27 7 21 9 -3 76 -6 150 -6z
m-529 -7 c-4 -3 -10 -3 -14 0 -3 4 0 7 7 7 7 0 10 -3 7 -7z m-146 -63 c-19
-16 -39 -26 -44 -23 -6 3 -7 1 -3 -5 5 -8 0 -12 -13 -12 -11 0 -22 4 -25 9 -7
10 22 25 43 22 7 -1 10 2 7 8 -4 5 -2 12 4 16 6 4 8 11 5 16 -4 5 1 9 9 9 9 0
16 5 16 12 0 7 7 5 18 -6 16 -17 15 -19 -17 -46z m224 40 c3 -5 1 -10 -4 -10
-6 0 -11 5 -11 10 0 6 2 10 4 10 3 0 8 -4 11 -10z m-116 -27 c10 -22 14 -24
22 -12 8 13 13 6 10 -13 0 -5 5 -8 13 -8 8 0 21 -13 29 -30 15 -29 15 -29 -4
-19 -11 5 -17 14 -14 19 3 6 -1 7 -9 4 -9 -3 -16 -11 -16 -18 0 -6 -16 -12
-35 -13 -34 -3 -48 10 -22 20 6 3 7 6 1 6 -6 1 -21 -10 -34 -24 -13 -14 -18
-25 -11 -25 7 0 9 -5 5 -12 -5 -9 -2 -9 9 1 20 16 22 3 4 -20 -11 -14 -16 -15
-30 -4 -11 8 -15 20 -11 31 5 18 5 18 -6 2 -6 -10 -10 -24 -8 -30 3 -19 -12
-71 -19 -65 -3 4 -14 2 -23 -3 -13 -7 -20 -6 -23 5 -3 7 -1 16 6 19 7 3 2 3
-10 0 -19 -4 -23 -1 -23 20 0 14 -5 26 -10 26 -14 0 63 78 115 116 22 16 46
35 53 42 20 18 27 15 41 -15z m-1559 8 c0 -21 -13 -41 -26 -41 -17 0 -17 5 -4
31 11 20 30 26 30 10z m2497 -65 c-3 -7 -16 -12 -29 -10 -12 1 -29 3 -37 3
-11 1 -11 4 -1 16 7 8 17 12 24 8 6 -3 8 -3 4 2 -4 4 -2 17 4 28 10 20 11 20
25 -7 8 -15 12 -33 10 -40z m-2696 -9 c-10 -9 -11 -8 -5 6 3 10 9 15 12 12 3
-3 0 -11 -7 -18z m1564 -6 c3 -5 1 -12 -5 -16 -5 -3 -10 1 -10 9 0 18 6 21 15
7z m362 -8 c-4 -3 -7 0 -7 7 0 7 3 10 7 7 3 -4 3 -10 0 -14z m530 -20 c-4 -3
-10 -3 -14 0 -3 4 0 7 7 7 7 0 10 -3 7 -7z m56 -2 c4 -1 7 -7 7 -14 0 -7 -11
-12 -27 -11 -16 0 -27 4 -25 7 1 4 2 11 2 16 0 5 8 8 18 6 9 -2 20 -4 25 -4z
m-653 -8 c0 -5 -4 -14 -9 -21 -7 -11 -9 -11 -14 1 -3 8 -3 18 0 21 9 8 23 7
23 -1z m165 -4 c4 -5 -3 -8 -14 -6 -28 4 -34 12 -11 14 11 1 22 -2 25 -8z
m-525 -33 c0 -3 -5 -8 -12 -12 -7 -4 -8 -3 -4 4 7 12 16 16 16 8z m740 0 c0
-3 -4 -8 -10 -11 -5 -3 -10 -1 -10 4 0 6 5 11 10 11 6 0 10 -2 10 -4z m-859
-39 c-10 -9 -11 -8 -5 6 3 10 9 15 12 12 3 -3 0 -11 -7 -18z m369 13 c0 -5 -7
-10 -16 -10 -8 0 -12 5 -9 10 3 6 10 10 16 10 5 0 9 -4 9 -10z m171 -7 c12
-16 12 -17 -2 -6 -9 7 -20 9 -24 5 -5 -4 -5 -1 -1 6 9 16 11 15 27 -5z m-499
-42 c-4 -11 -7 -11 -10 -3 -2 7 -8 10 -13 6 -11 -6 -11 -2 -3 20 5 12 9 13 19
3 7 -6 10 -18 7 -26z m355 22 c-4 -3 -7 0 -7 7 0 7 3 10 7 7 3 -4 3 -10 0 -14z
m234 -36 c-6 -6 -14 -7 -18 -2 -5 4 -2 10 5 12 6 3 13 14 13 26 2 20 2 20 6
-2 3 -13 0 -28 -6 -34z m119 49 c0 -9 -30 -14 -35 -6 -4 6 3 10 14 10 12 0 21
-2 21 -4z m-773 -23 c-4 -3 -7 0 -7 7 0 7 3 10 7 7 3 -4 3 -10 0 -14z m348 7
c-3 -5 -13 -10 -21 -10 -8 0 -12 5 -9 10 3 6 13 10 21 10 8 0 12 -4 9 -10z
m772 3 c-4 -3 -10 -3 -14 0 -3 4 0 7 7 7 7 0 10 -3 7 -7z m-2062 -12 c5 -8
-86 -41 -114 -41 -29 0 -6 21 37 34 57 18 69 19 77 7z m1550 -11 c3 -6 -1 -7
-9 -4 -18 7 -21 14 -7 14 6 0 13 -4 16 -10z m105 -14 c14 -18 14 -19 -8 -7
-12 7 -20 17 -16 22 3 6 7 9 8 7 1 -2 8 -12 16 -22z m-1486 -8 c3 -13 5 -34 5
-48 -1 -24 -1 -24 -14 5 -16 35 -19 65 -6 65 5 0 11 -10 15 -22z m766 18 c0
-3 -4 -8 -10 -11 -5 -3 -10 -1 -10 4 0 6 5 11 10 11 6 0 10 -2 10 -4z m570
-26 c0 -5 -4 -12 -10 -15 -5 -3 -10 -4 -10 -1 0 2 -3 12 -6 20 -5 12 -2 15 10
10 9 -3 16 -10 16 -14z m-476 -8 c-6 -4 -14 -16 -17 -26 -4 -10 -10 -16 -14
-13 -3 4 2 18 11 33 10 14 20 23 24 19 4 -3 2 -9 -4 -13z m-1014 -2 c0 -14
-29 -27 -77 -35 -27 -4 -43 -3 -43 3 0 10 71 38 103 41 9 0 17 -3 17 -9z
m1818 -9 c3 -10 0 -12 -13 -7 -10 4 -21 3 -24 -2 -3 -5 -15 -1 -26 10 -19 18
-19 19 20 16 22 -2 40 -9 43 -17z m-494 -17 c26 -14 31 -30 11 -38 -22 -8 -51
9 -58 33 -5 19 12 35 23 22 3 -3 14 -11 24 -17z m75 4 c11 -10 14 -10 18 0 4
12 33 18 33 7 0 -18 -27 -32 -47 -24 -13 5 -30 6 -38 3 -15 -6 -21 7 -8 19 10
11 28 8 42 -5z m-529 -12 c0 -2 -7 -9 -15 -16 -13 -11 -14 -10 -9 4 5 14 24
23 24 12z m50 -5 c0 -6 -5 -13 -11 -17 -8 -5 -8 -9 1 -14 8 -5 7 -11 -4 -23
-9 -8 -16 -20 -16 -26 0 -13 -3 -13 -24 -5 -22 8 -20 22 7 61 21 31 47 44 47
24z m897 2 c-4 -3 -10 -3 -14 0 -3 4 0 7 7 7 7 0 10 -3 7 -7z m-847 -21 c0 -4
-5 -13 -11 -19 -14 -14 -2 -34 19 -32 33 3 43 -1 35 -13 -16 -26 -11 -38 15
-38 34 0 26 -6 -21 -14 -30 -6 -37 -4 -31 5 5 9 2 10 -9 6 -12 -4 -17 -1 -17
9 0 11 6 14 18 10 14 -5 14 -3 -2 9 -11 8 -28 12 -39 9 -17 -5 -17 -3 5 35 21
38 38 52 38 33z m97 -39 c-4 -3 -10 -3 -14 0 -3 4 0 7 7 7 7 0 10 -3 7 -7z
m-42 -93 c3 -5 4 -10 1 -10 -3 0 -8 5 -11 10 -3 6 -4 10 -1 10 3 0 8 -4 11
-10z"/>
<path d="M435 2930 c-3 -5 -1 -10 4 -10 6 0 11 5 11 10 0 6 -2 10 -4 10 -3 0
-8 -4 -11 -10z"/>
<path d="M1560 1700 c0 -7 3 -10 7 -7 3 4 3 10 0 14 -4 3 -7 0 -7 -7z"/>
<path d="M1650 1460 c0 -7 3 -10 7 -7 3 4 3 10 0 14 -4 3 -7 0 -7 -7z"/>
<path d="M683 1323 c4 -3 10 -3 14 0 3 4 0 7 -7 7 -7 0 -10 -3 -7 -7z"/>
<path d="M806 1297 c3 -10 9 -15 12 -12 3 3 0 11 -7 18 -10 9 -11 8 -5 -6z"/>
<path d="M939 1253 c-13 -15 -12 -15 9 -4 12 6 28 9 34 5 7 -4 8 -3 4 4 -10
17 -31 15 -47 -5z"/>
<path d="M930 1215 c0 -8 7 -15 15 -15 8 0 15 4 15 9 0 5 -7 11 -15 15 -9 3
-15 0 -15 -9z"/>
<path d="M880 1080 c0 -7 3 -10 7 -7 3 4 3 10 0 14 -4 3 -7 0 -7 -7z"/>
<path d="M545 1070 c3 -5 8 -10 11 -10 2 0 4 5 4 10 0 6 -5 10 -11 10 -5 0 -7
-4 -4 -10z"/>
<path d="M690 1020 c-9 -6 -10 -10 -3 -10 6 0 15 5 18 10 8 12 4 12 -15 0z"/>
<path d="M635 970 c-3 -5 1 -10 10 -10 9 0 13 5 10 10 -3 6 -8 10 -10 10 -2 0
-7 -4 -10 -10z"/>
<path d="M1245 933 c5 -15 4 -16 -6 -5 -7 6 -22 11 -33 11 -19 -1 -19 -2 -3
-6 11 -3 27 -13 38 -24 19 -19 19 -19 -6 -19 -14 0 -24 -3 -22 -7 1 -5 -2 -9
-7 -10 -12 -2 -26 -25 -20 -35 3 -4 18 -8 35 -8 22 0 29 -5 29 -20 0 -11 5
-20 11 -20 5 0 7 5 4 11 -4 6 1 5 13 -2 12 -7 17 -19 14 -31 -3 -13 0 -17 11
-12 17 6 97 -31 97 -45 0 -5 9 -7 19 -4 13 3 18 11 14 21 -4 10 -2 14 2 10 11
-10 47 71 42 91 -3 10 -5 8 -6 -5 0 -12 -9 -24 -19 -26 -20 -6 -102 38 -102
53 0 5 -10 9 -21 9 -18 0 -19 3 -9 15 17 20 5 45 -20 45 -11 0 -23 7 -26 15
-4 8 -13 15 -21 15 -10 0 -13 -6 -8 -17z m72 -89 c-3 -3 -12 -4 -19 -1 -8 3
-5 6 6 6 11 1 17 -2 13 -5z m63 -54 c47 -24 58 -57 13 -38 -46 20 -73 40 -67
49 7 12 9 12 54 -11z"/>
<path d="M1480 890 c0 -7 3 -10 7 -7 3 4 3 10 0 14 -4 3 -7 0 -7 -7z"/>
<path d="M673 863 c4 -3 10 -3 14 0 3 4 0 7 -7 7 -7 0 -10 -3 -7 -7z"/>
<path d="M1156 623 c-48 -40 -53 -49 -38 -54 11 -4 32 -26 49 -48 l30 -40 51
35 51 36 -34 46 c-19 24 -35 51 -35 58 0 23 -15 16 -74 -33z m78 -31 c27 -40
31 -52 17 -52 -9 0 -61 71 -61 83 0 18 20 4 44 -31z m-42 -24 c37 -50 41 -58
25 -58 -12 0 -67 69 -67 85 0 15 20 1 42 -27z"/>
<path d="M1334 578 c-4 -7 -3 -8 4 -4 12 7 16 16 8 16 -3 0 -8 -5 -12 -12z"/>
<path d="M665 525 c-27 -25 -54 -45 -60 -45 -12 -1 25 -30 38 -30 5 0 7 6 4
14 -5 13 31 56 46 56 15 0 7 -61 -9 -67 -15 -6 -15 -8 2 -20 33 -24 39 -15 41
62 1 41 -1 75 -5 75 -4 0 -29 -20 -57 -45z"/>
<path d="M555 480 c3 -5 8 -10 11 -10 3 0 2 5 -1 10 -3 6 -8 10 -11 10 -3 0
-2 -4 1 -10z"/>
<path d="M563 443 c4 -3 10 -3 14 0 3 4 0 7 -7 7 -7 0 -10 -3 -7 -7z"/>
<path d="M640 430 c8 -5 20 -10 25 -10 6 0 3 5 -5 10 -8 5 -19 10 -25 10 -5 0
-3 -5 5 -10z"/>
<path d="M2390 1000 c0 -7 3 -10 7 -7 3 4 3 10 0 14 -4 3 -7 0 -7 -7z"/>
<path d="M2426 881 c-3 -5 1 -11 9 -15 9 -3 15 0 15 9 0 16 -16 20 -24 6z"/>
<path d="M2690 510 c0 -7 3 -10 7 -7 3 4 3 10 0 14 -4 3 -7 0 -7 -7z"/>
<path d="M2383 503 c4 -3 10 -3 14 0 3 4 0 7 -7 7 -7 0 -10 -3 -7 -7z"/>
<path d="M2353 462 c-7 -5 -9 -13 -4 -21 7 -11 12 -11 30 1 19 14 20 16 6 22
-20 7 -17 7 -32 -2z"/>
<path d="M2007 2993 c28 -5 93 -77 93 -103 0 -32 -31 -100 -46 -100 -8 0 -14
-6 -14 -14 0 -11 8 -12 42 -4 53 11 56 15 33 32 -17 12 -17 17 -5 45 l13 32
28 -27 c22 -21 26 -30 17 -41 -6 -7 -9 -16 -6 -18 5 -5 150 29 194 46 25 9 25
11 11 27 -9 10 -22 42 -29 71 -11 47 -30 73 -44 58 -3 -2 3 -34 12 -71 9 -37
14 -69 11 -73 -16 -15 -34 11 -50 76 -15 59 -22 71 -39 71 -12 0 -18 -5 -16
-12 18 -48 40 -149 34 -155 -3 -4 -29 15 -57 43 -38 37 -48 54 -44 69 4 11 9
28 12 38 3 9 0 17 -6 17 -6 0 -14 -12 -17 -26 l-7 -25 -26 25 c-22 21 -36 26
-72 25 -24 -1 -34 -4 -22 -6z"/>
<path d="M2696 2929 c-14 -53 -23 -73 -38 -77 -31 -8 -14 -26 37 -39 54 -14
66 -10 43 13 -14 14 -13 23 3 92 10 42 18 78 19 80 0 1 -10 2 -23 2 -20 0 -25
-9 -41 -71z"/>
<path d="M0 2853 c1 -32 25 -70 35 -54 9 15 -4 33 -17 25 -7 -5 -9 2 -6 20 3
14 1 29 -3 32 -5 3 -9 -7 -9 -23z"/>
<path d="M1189 2853 c-7 -10 -10 -15 -5 -11 5 4 15 0 23 -8 19 -19 24 -15 16
14 -7 27 -16 28 -34 5z"/>
<path d="M1708 2805 c-57 -59 -74 -90 -42 -78 19 7 34 -13 34 -44 0 -16 -6
-23 -19 -23 -30 0 -51 11 -51 26 0 25 -24 14 -57 -26 -37 -44 -44 -67 -14 -48
14 8 38 9 87 2 l69 -9 9 -49 c5 -31 5 -61 -2 -82 -7 -23 -7 -34 0 -34 15 0 77
72 78 90 0 11 -3 11 -12 2 -7 -7 -15 -12 -20 -12 -8 0 -30 72 -23 78 2 2 20 1
40 -2 26 -5 35 -12 35 -26 0 -32 13 -24 75 48 57 66 58 67 32 70 -33 4 -154
122 -159 154 -3 21 -9 17 -60 -37z m112 -101 l65 -66 -70 6 c-80 7 -89 14 -99
82 -11 84 5 80 104 -22z"/>
<path d="M57 2803 c-4 -3 -7 -13 -7 -22 1 -13 3 -13 11 2 11 19 8 33 -4 20z"/>
<path d="M841 2717 c0 -10 6 -25 14 -33 13 -14 15 -14 15 0 0 9 -4 16 -9 16
-5 0 -12 8 -14 18 -4 16 -5 16 -6 -1z"/>
<path d="M785 2710 c3 -5 8 -10 11 -10 2 0 4 5 4 10 0 6 -5 10 -11 10 -5 0 -7
-4 -4 -10z"/>
<path d="M2870 2702 c-8 -9 -17 -27 -20 -41 -4 -19 -14 -27 -42 -34 -41 -10
-52 -26 -39 -60 7 -18 5 -26 -10 -35 -10 -7 -19 -22 -19 -34 0 -21 1 -21 13
-3 9 11 19 15 27 10 9 -5 11 -4 6 4 -4 7 -1 26 7 44 8 18 17 39 21 47 3 8 4 1
1 -17 -6 -42 13 -53 38 -22 17 20 19 20 12 4 -17 -42 -18 -75 -2 -75 19 0 30
-29 17 -45 -8 -9 -6 -14 5 -19 8 -3 15 -13 15 -22 0 -16 1 -16 18 -1 10 10 21
15 24 12 2 -3 11 13 18 34 7 22 19 42 26 45 17 7 19 86 3 86 -7 0 -9 11 -5 33
4 17 9 48 12 67 l5 35 -22 -40 c-23 -42 -24 -42 -43 17 -3 12 -11 15 -22 11
-9 -3 -19 -1 -23 4 -4 7 -11 5 -21 -5z m17 -19 c-4 -3 -10 -3 -14 0 -3 4 0 7
7 7 7 0 10 -3 7 -7z m23 -46 c0 -18 -2 -19 -10 -7 -13 20 -13 43 0 35 6 -3 10
-16 10 -28z m57 -44 c-4 -3 -7 0 -7 7 0 7 3 10 7 7 3 -4 3 -10 0 -14z m20 -76
c0 -8 -6 -14 -14 -14 -17 0 -17 14 0 20 6 3 12 6 13 6 0 1 1 -5 1 -12z"/>
<path d="M880 2680 c0 -7 3 -10 7 -7 3 4 3 10 0 14 -4 3 -7 0 -7 -7z"/>
<path d="M752 2629 c2 -6 8 -10 13 -10 5 0 11 4 13 10 2 6 -4 11 -13 11 -9 0
-15 -5 -13 -11z"/>
<path d="M793 2633 c4 -3 10 -3 14 0 3 4 0 7 -7 7 -7 0 -10 -3 -7 -7z"/>
<path d="M2990 2600 c0 -7 3 -10 7 -7 3 4 3 10 0 14 -4 3 -7 0 -7 -7z"/>
<path d="M2720 2570 c0 -7 3 -10 7 -7 3 4 3 10 0 14 -4 3 -7 0 -7 -7z"/>
<path d="M580 2560 c0 -7 3 -10 7 -7 3 4 3 10 0 14 -4 3 -7 0 -7 -7z"/>
<path d="M2706 2534 c-4 -9 -4 -19 -2 -21 8 -8 26 8 26 23 0 19 -16 18 -24 -2z"/>
<path d="M1010 2520 c0 -7 3 -10 7 -7 3 4 3 10 0 14 -4 3 -7 0 -7 -7z"/>
<path d="M2815 2500 c-3 -5 -1 -10 4 -10 6 0 11 5 11 10 0 6 -2 10 -4 10 -3 0
-8 -4 -11 -10z"/>
<path d="M2690 2480 c0 -7 3 -10 7 -7 3 4 3 10 0 14 -4 3 -7 0 -7 -7z"/>
<path d="M2706 2464 c-10 -25 -7 -34 9 -34 8 0 15 5 15 10 0 6 -4 10 -10 10
-5 0 -7 7 -4 15 4 8 4 15 1 15 -3 0 -8 -7 -11 -16z"/>
<path d="M1405 2424 c-8 -20 -15 -40 -15 -45 0 -5 -3 -9 -7 -9 -5 0 -9 -15
-10 -33 -1 -26 2 -21 21 28 13 33 27 68 31 78 4 9 4 17 1 17 -3 0 -13 -16 -21
-36z"/>
<path d="M2734 2398 c-4 -7 -3 -8 4 -4 12 7 16 16 8 16 -3 0 -8 -5 -12 -12z"/>
<path d="M2026 2325 c-3 -8 -9 -15 -13 -14 -24 4 -33 -4 -31 -25 1 -14 6 -22
10 -20 4 3 8 -2 8 -10 0 -9 7 -16 16 -16 12 0 14 3 6 13 -11 14 2 57 18 57 5
0 10 7 10 15 0 19 -16 19 -24 0z"/>
<path d="M2096 2330 c-11 -3 -15 -9 -10 -13 10 -6 42 9 34 16 -3 3 -14 1 -24
-3z"/>
<path d="M2161 2324 c0 -11 3 -14 6 -6 3 7 2 16 -1 19 -3 4 -6 -2 -5 -13z"/>
<path d="M2750 2320 c0 -7 3 -10 7 -7 3 4 3 10 0 14 -4 3 -7 0 -7 -7z"/>
<path d="M1357 2286 c-4 -10 -7 -25 -6 -34 0 -11 4 -9 10 7 5 13 8 29 6 35 -2
5 -6 2 -10 -8z"/>
<path d="M2160 2280 c0 -7 3 -10 7 -7 3 4 3 10 0 14 -4 3 -7 0 -7 -7z"/>
<path d="M2076 2244 c-19 -18 -19 -20 -5 -46 10 -19 11 -19 25 7 25 49 13 73
-20 39z"/>
<path d="M370 2174 c-30 -7 -61 -12 -67 -9 -16 5 -16 0 -2 -27 6 -11 14 -17
18 -12 8 12 58 34 77 34 13 0 13 -4 -3 -30 -9 -16 -20 -30 -23 -30 -3 0 -11
-4 -19 -9 -11 -7 -7 -18 18 -55 18 -25 34 -46 37 -46 3 0 2 4 -1 10 -9 14 98
82 118 74 24 -9 21 6 -8 41 -21 26 -24 27 -25 10 -1 -22 -102 -91 -108 -74 -2
5 14 33 35 62 57 76 58 77 31 76 -13 -1 -48 -7 -78 -15z"/>
<path d="M1826 2054 c-8 -21 -8 -24 5 -24 5 0 7 5 4 10 -4 7 3 8 20 4 20 -5
26 -3 23 6 -6 19 -45 22 -52 4z"/>
<path d="M2240 2050 c0 -7 3 -10 7 -7 3 4 3 10 0 14 -4 3 -7 0 -7 -7z"/>
<path d="M1965 2040 c3 -5 -2 -21 -11 -35 -15 -23 -15 -25 0 -25 9 0 16 6 16
13 0 6 3 22 6 35 4 13 2 22 -5 22 -7 0 -9 -4 -6 -10z"/>
<path d="M2270 2030 c0 -5 4 -10 9 -10 6 0 13 5 16 10 3 6 -1 10 -9 10 -9 0
-16 -4 -16 -10z"/>
<path d="M84 2008 c-4 -7 -3 -8 4 -4 12 7 16 16 8 16 -3 0 -8 -5 -12 -12z"/>
<path d="M625 1991 c7 -22 -39 -121 -56 -121 -23 0 6 -22 59 -47 32 -14 65
-30 76 -35 14 -8 17 -7 14 4 -6 16 49 128 63 128 23 0 -6 21 -77 54 -41 20
-77 36 -80 36 -3 0 -3 -9 1 -19z m58 -27 c3 -4 -8 -33 -24 -66 -20 -40 -34
-57 -40 -51 -7 7 -1 30 17 67 28 55 34 62 47 50z m47 -34 c0 -23 -45 -110 -57
-110 -17 0 -17 1 14 65 25 51 43 70 43 45z"/>
<path d="M2296 1995 c-3 -9 0 -15 9 -15 16 0 20 16 6 24 -5 3 -11 -1 -15 -9z"/>
<path d="M1695 1970 c3 -5 8 -10 11 -10 2 0 4 5 4 10 0 6 -5 10 -11 10 -5 0
-7 -4 -4 -10z"/>
<path d="M1701 1891 c-26 -36 -26 -38 2 -52 20 -11 21 -11 9 4 -11 13 -10 16
7 22 22 7 29 25 10 25 -6 0 -9 7 -5 15 9 23 -1 18 -23 -14z"/>
<path d="M1643 1873 c4 -3 10 -3 14 0 3 4 0 7 -7 7 -7 0 -10 -3 -7 -7z"/>
<path d="M1730 1850 c0 -7 3 -10 7 -7 3 4 3 10 0 14 -4 3 -7 0 -7 -7z"/>
<path d="M2220 1850 c0 -7 3 -10 7 -7 3 4 3 10 0 14 -4 3 -7 0 -7 -7z"/>
<path d="M2621 1824 c0 -11 3 -14 6 -6 3 7 2 16 -1 19 -3 4 -6 -2 -5 -13z"/>
<path d="M2195 1800 c-3 -5 -2 -10 4 -10 5 0 13 5 16 10 3 6 2 10 -4 10 -5 0
-13 -4 -16 -10z"/>
<path d="M2250 1778 c0 -9 5 -20 10 -23 13 -8 13 5 0 25 -8 13 -10 13 -10 -2z"/>
<path d="M688 1768 c5 -5 16 -8 23 -6 8 3 3 7 -10 11 -17 4 -21 3 -13 -5z"/>
<path d="M2223 1763 c4 -3 10 -3 14 0 3 4 0 7 -7 7 -7 0 -10 -3 -7 -7z"/>
<path d="M750 1750 c8 -5 20 -10 25 -10 6 0 3 5 -5 10 -8 5 -19 10 -25 10 -5
0 -3 -5 5 -10z"/>
<path d="M2245 1679 c-10 -14 -1 -21 19 -13 9 3 13 10 10 15 -7 12 -21 11 -29
-2z"/>
<path d="M2250 1630 c0 -19 1 -19 20 -3 11 10 20 19 20 20 0 2 -9 3 -20 3 -13
0 -20 -7 -20 -20z"/>
<path d="M2252 1589 c-21 -25 -21 -29 -6 -29 9 0 14 3 11 7 -4 3 0 15 10 25 9
10 14 20 12 22 -2 2 -14 -10 -27 -25z"/>
<path d="M2180 1594 c0 -8 5 -12 10 -9 6 4 8 11 5 16 -9 14 -15 11 -15 -7z"/>
<path d="M2143 1593 c4 -3 10 -3 14 0 3 4 0 7 -7 7 -7 0 -10 -3 -7 -7z"/>
<path d="M2310 1535 c-12 -15 -5 -39 9 -30 12 7 21 45 11 45 -4 0 -13 -7 -20
-15z"/>
<path d="M2229 1527 c0 -1 -2 -16 -3 -33 -4 -42 7 -62 27 -46 12 10 38 18 72
22 6 0 2 5 -8 11 -13 8 -22 7 -32 -1 -11 -9 -16 -7 -24 8 -6 12 -7 22 -1 28 6
6 2 10 -10 11 -11 1 -20 1 -21 0z"/>
<path d="M2519 1511 c11 -7 10 -11 -7 -20 -11 -6 -28 -11 -36 -11 -9 0 -16 -3
-16 -7 0 -5 14 -8 32 -7 21 1 34 7 39 20 12 29 10 34 -8 34 -14 0 -15 -2 -4
-9z"/>
<path d="M2643 1463 c4 -3 10 -3 14 0 3 4 0 7 -7 7 -7 0 -10 -3 -7 -7z"/>
<path d="M2710 1440 c0 -5 5 -10 10 -10 6 0 10 5 10 10 0 6 -4 10 -10 10 -5 0
-10 -4 -10 -10z"/>
<path d="M2025 1430 c3 -5 8 -10 11 -10 3 0 2 5 -1 10 -3 6 -8 10 -11 10 -3 0
-2 -4 1 -10z"/>
<path d="M2055 1430 c-3 -5 3 -10 14 -10 12 0 21 5 21 10 0 6 -6 10 -14 10 -8
0 -18 -4 -21 -10z"/>
<path d="M2015 1380 c3 -5 8 -10 11 -10 2 0 4 5 4 10 0 6 -5 10 -11 10 -5 0
-7 -4 -4 -10z"/>
<path d="M2684 1328 c-4 -7 -3 -8 4 -4 7 4 12 9 12 12 0 8 -9 4 -16 -8z"/>
<path d="M2956 1319 c4 -7 44 0 44 7 0 2 -11 3 -24 2 -14 -1 -23 -5 -20 -9z"/>
<path d="M2980 1180 c0 -5 5 -10 10 -10 6 0 10 5 10 10 0 6 -4 10 -10 10 -5 0
-10 -4 -10 -10z"/>
<path d="M2960 1170 c0 -7 3 -10 7 -7 3 4 3 10 0 14 -4 3 -7 0 -7 -7z"/>
<path d="M2983 1153 c4 -3 10 -3 14 0 3 4 0 7 -7 7 -7 0 -10 -3 -7 -7z"/>
<path d="M2890 1120 c0 -7 3 -10 7 -7 3 4 3 10 0 14 -4 3 -7 0 -7 -7z"/>
<path d="M2934 1048 c-4 -7 -3 -8 4 -4 7 4 12 9 12 12 0 8 -9 4 -16 -8z"/>
<path d="M2915 1020 c3 -5 8 -10 11 -10 2 0 4 5 4 10 0 6 -5 10 -11 10 -5 0
-7 -4 -4 -10z"/>
<path d="M5 770 c3 -5 11 -10 16 -10 6 0 7 5 4 10 -3 6 -11 10 -16 10 -6 0 -7
-4 -4 -10z"/>
<path d="M3 743 c4 -3 10 -3 14 0 3 4 0 7 -7 7 -7 0 -10 -3 -7 -7z"/>
<path d="M60 350 c0 -7 3 -10 7 -7 3 4 3 10 0 14 -4 3 -7 0 -7 -7z"/>
<path d="M2806 305 c-11 -8 -17 -17 -14 -20 2 -3 13 4 23 15 21 23 18 25 -9 5z"/>
<path d="M2820 290 c-1 -3 -4 -18 -6 -34 -2 -21 0 -26 8 -18 14 14 38 4 47
-21 8 -20 8 -20 13 1 4 12 2 20 -2 17 -5 -3 -12 4 -15 16 -4 12 -13 18 -20 15
-8 -3 -16 3 -18 12 -3 9 -6 15 -7 12z"/>
<path d="M2780 262 c6 -13 14 -21 18 -18 3 4 -2 14 -12 24 -18 16 -18 16 -6
-6z"/>
<path d="M2930 240 c-13 -8 -12 -10 3 -10 9 0 17 5 17 10 0 12 -1 12 -20 0z"/>
<path d="M2910 200 c0 -7 3 -10 7 -7 3 4 3 10 0 14 -4 3 -7 0 -7 -7z"/>
<path d="M2510 180 c0 -5 5 -10 11 -10 5 0 7 5 4 10 -3 6 -8 10 -11 10 -2 0
-4 -4 -4 -10z"/>
<path d="M2170 161 c0 -5 5 -13 10 -16 6 -3 10 -2 10 4 0 5 -4 13 -10 16 -5 3
-10 2 -10 -4z"/>
<path d="M2130 130 c0 -5 7 -10 15 -10 8 0 15 5 15 10 0 6 -7 10 -15 10 -8 0
-15 -4 -15 -10z"/>
<path d="M2260 130 c0 -7 3 -10 7 -7 3 4 3 10 0 14 -4 3 -7 0 -7 -7z"/>
<path d="M2170 60 c0 -18 4 -29 10 -25 6 3 10 15 10 25 0 10 -4 22 -10 25 -6
4 -10 -7 -10 -25z"/>
<path d="M2530 80 c0 -7 3 -10 7 -7 3 4 3 10 0 14 -4 3 -7 0 -7 -7z"/>
<path d="M310 68 c-15 -6 -83 -7 -167 -3 -87 4 -143 3 -143 -3 0 -5 62 -12
139 -15 94 -3 147 -10 167 -20 26 -13 34 -13 63 -1 36 15 34 23 -9 41 -16 7
-34 7 -50 1z"/>
<path d="M2960 59 c11 -8 12 -12 3 -16 -15 -5 -18 -43 -4 -43 11 0 24 48 16
60 -4 6 -12 10 -18 10 -7 0 -6 -4 3 -11z"/>
<path d="M430 10 c0 -5 5 -10 10 -10 6 0 10 5 10 10 0 6 -4 10 -10 10 -5 0
-10 -4 -10 -10z"/>
<path d="M2178 3 c6 -2 18 -2 25 0 6 3 1 5 -13 5 -14 0 -19 -2 -12 -5z"/>
</g>
</svg>
